HIERARCHY
ROOT Hips
{
	OFFSET 0.000000 0.000000 0.000000
	CHANNELS 6 Xposition Yposition Zposition Zrotation Yrotation Xrotation 
	JOINT LHipJoint
	{
		OFFSET 0.000000 0.000000 0.000000
		CHANNELS 3 Zrotation Yrotation Xrotation
		JOINT LeftUpLeg
		{
			OFFSET 1.363060 -1.794630 0.839290
			CHANNELS 3 Zrotation Yrotation Xrotation
			JOINT LeftLeg
			{
				OFFSET 2.448110 -6.726130 0.000000
				CHANNELS 3 Zrotation Yrotation Xrotation
				JOINT LeftFoot
				{
					OFFSET 2.562200 -7.039590 0.000000
					CHANNELS 3 Zrotation Yrotation Xrotation
					JOINT LeftToeBase
					{
						OFFSET 0.157640 -0.433110 2.322550
						CHANNELS 3 Zrotation Yrotation Xrotation
						End Site
						{
							OFFSET 0.000000 0.000000 0.000000
						}
					}
				}
			}
		}
	}
	JOINT RHipJoint
	{
		OFFSET 0.000000 0.000000 0.000000
		CHANNELS 3 Zrotation Yrotation Xrotation
		JOINT RightUpLeg
		{
			OFFSET -1.305520 -1.794630 0.839290
			CHANNELS 3 Zrotation Yrotation Xrotation
			JOINT RightLeg
			{
				OFFSET -2.542530 -6.985550 0.000000
				CHANNELS 3 Zrotation Yrotation Xrotation
				JOINT RightFoot
				{
					OFFSET -2.568260 -7.056230 0.000000
					CHANNELS 3 Zrotation Yrotation Xrotation
					JOINT RightToeBase
					{
						OFFSET -0.164730 -0.452590 2.363150
						CHANNELS 3 Zrotation Yrotation Xrotation
						End Site
						{
							OFFSET 0.000000 0.000000 0.000000
						}
					}
				}
			}
		}
	}
	JOINT LowerBack
	{
		OFFSET 0.000000 0.000000 0.000000
		CHANNELS 3 Zrotation Yrotation Xrotation
		JOINT Spine
		{
			OFFSET 0.028270 2.035590 -0.193380
			CHANNELS 3 Zrotation Yrotation Xrotation
			JOINT Spine1
			{
				OFFSET 0.056720 2.048850 -0.042750
				CHANNELS 3 Zrotation Yrotation Xrotation
				JOINT Neck
				{
					OFFSET 0.000000 0.000000 0.000000
					CHANNELS 3 Zrotation Yrotation Xrotation
					JOINT Neck1
					{
						OFFSET -0.054170 1.746240 0.172020
						CHANNELS 3 Zrotation Yrotation Xrotation
						JOINT Head
						{
							OFFSET 0.104070 1.761360 -0.123970
							CHANNELS 3 Zrotation Yrotation Xrotation
							End Site
							{
								OFFSET 0.000000 0.000000 0.000000
							}
						}
					}
				}
				JOINT LeftShoulder
				{
					OFFSET 0.000000 0.000000 0.000000
					CHANNELS 3 Zrotation Yrotation Xrotation
					JOINT LeftArm
					{
						OFFSET 3.362410 1.200890 -0.311210
						CHANNELS 3 Zrotation Yrotation Xrotation
						JOINT LeftForeArm
						{
							OFFSET 4.983000 -0.000000 -0.000000
							CHANNELS 3 Zrotation Yrotation Xrotation
							JOINT LeftHand
							{
								OFFSET 3.483560 -0.000000 -0.000000
								CHANNELS 3 Zrotation Yrotation Xrotation
								JOINT LeftFingerBase
								{
									OFFSET 0.000000 0.000000 0.000000
									CHANNELS 3 Zrotation Yrotation Xrotation
									JOINT LeftHandIndex1
									{
										OFFSET 0.715260 -0.000000 -0.000000
										CHANNELS 3 Zrotation Yrotation Xrotation
										End Site
										{
											OFFSET 0.000000 0.000000 0.000000
										}
									}
								}
								JOINT LThumb
								{
									OFFSET 0.000000 0.000000 0.000000
									CHANNELS 3 Zrotation Yrotation Xrotation
									End Site
									{
										OFFSET 0.000000 0.000000 0.000000
									}
								}
							}
						}
					}
				}
				JOINT RightShoulder
				{
					OFFSET 0.000000 0.000000 0.000000
					CHANNELS 3 Zrotation Yrotation Xrotation
					JOINT RightArm
					{
						OFFSET -3.136600 1.374050 -0.404650
						CHANNELS 3 Zrotation Yrotation Xrotation
						JOINT RightForeArm
						{
							OFFSET -5.241900 -0.000000 -0.000000
							CHANNELS 3 Zrotation Yrotation Xrotation
							JOINT RightHand
							{
								OFFSET -3.444170 -0.000000 -0.000000
								CHANNELS 3 Zrotation Yrotation Xrotation
								JOINT RightFingerBase
								{
									OFFSET 0.000000 0.000000 0.000000
									CHANNELS 3 Zrotation Yrotation Xrotation
									JOINT RightHandIndex1
									{
										OFFSET -0.622530 -0.000000 -0.000000
										CHANNELS 3 Zrotation Yrotation Xrotation
										End Site
										{
											OFFSET 0.000000 0.000000 0.000000
										}
									}
								}
								JOINT RThumb
								{
									OFFSET 0.000000 0.000000 0.000000
									CHANNELS 3 Zrotation Yrotation Xrotation
									End Site
									{
										OFFSET 0.000000 0.000000 0.000000
									}
								}
							}
						}
					}
				}
			}
		}
	}
}
MOTION
Frames: 5
Frame Time: 0.008333
-2.894152 16.480502 0.059281 3.102429 45.047037 6.967985 -9.721103 0.712614 2.199422 -0.533735 1.123118 -30.300536 -1.616766 1.222781 32.405453 0.450435 1.008299 -6.793374 -0.007700 -0.000001 -42.261600 10.571584 -3.123026 -0.737673 10.021712 -4.201793 0.594177 1.617322 -2.938021 40.231125 0.473077 7.502918 -12.138033 -0.497601 0.000000 -41.190700 -4.551561 0.713402 -3.777365 -1.459642 0.883799 -3.075574 -5.058655 0.771026 2.467939 10.823662 -12.553728 -8.806492 -1.614364 -0.114570 -0.275007 0.000000 0.000000 0.000000 -5.964409 23.189880 1.453880 -87.472826 21.968355 11.218633 -3.154950 -19.541008 -0.013853 -8.240673 7.734875 -0.568466 0.024227 -0.114072 -0.000000 0.000000 0.000000 0.000000 0.000000 0.000000 0.000000 10.898658 -7.013300 -0.828941 50.443901 12.201307 14.154365 1.188232 59.585946 0.005180 0.011451 4.557956 -0.000676 0.046580 -0.186546 0.000000 0.000000 0.000000 0.000000 0.000000 0.000000 0.000000 
-2.753900 16.467888 0.133355 3.216865 43.168013 6.860394 -9.759874 0.853092 1.937633 -0.885242 2.577907 -29.675756 -1.620204 1.277005 33.130133 0.474804 1.258880 -6.696298 -0.007300 -0.000000 -42.350800 10.893301 -3.189444 -0.711138 8.759726 -4.597569 -1.254702 1.201465 -3.214185 44.073107 0.433587 6.940821 -10.885019 -0.372000 0.000000 -45.416900 -4.716164 0.680126 -3.651844 -1.509582 0.866522 -3.083863 -5.128401 0.755458 2.374677 10.863321 -12.288406 -8.688541 -1.662459 -0.119839 -0.244454 0.000000 0.000000 0.000000 -5.858032 22.790307 1.434783 -87.291803 21.663035 12.565379 -3.075280 -19.966498 -0.012667 -7.849593 7.650660 -0.535554 0.025100 -0.111681 -0.000000 0.000000 0.000000 0.000000 0.000000 0.000000 0.000000 11.000461 -6.754539 -0.837940 51.357523 12.237604 14.142689 1.226683 59.112105 0.005374 0.022381 4.624091 -0.000259 0.047421 -0.187110 0.000000 0.000000 0.000000 0.000000 0.000000 0.000000 0.000000 
-2.617937 16.454548 0.209319 3.367677 41.256985 6.801921 -9.786471 0.992339 1.653227 -1.299659 4.236991 -29.094597 -1.649431 1.319863 33.761626 0.503898 1.527472 -6.787023 -0.014600 -0.000000 -42.590400 11.202510 -3.213332 -0.661232 7.566762 -4.898429 -3.243612 0.775796 -3.450654 47.883545 0.306356 5.761205 -9.930025 -0.239300 -0.000000 -47.972200 -4.900226 0.618929 -3.540741 -1.560963 0.822109 -3.095627 -5.198885 0.712128 2.275723 10.898549 -12.034674 -8.578626 -1.714461 -0.125319 -0.215657 0.000000 0.000000 0.000000 -5.736863 22.348290 1.416768 -86.975635 21.404043 13.921379 -3.011644 -20.512647 -0.011834 -7.608272 7.608349 -0.516147 0.025783 -0.109488 -0.000000 0.000000 0.000000 0.000000 0.000000 0.000000 0.000000 11.115985 -6.514331 -0.846396 52.378598 12.292233 14.126498 1.269696 58.575976 0.005569 0.020136 4.691088 -0.000437 0.048687 -0.187714 0.000000 0.000000 0.000000 0.000000 0.000000 0.000000 0.000000 
-2.486041 16.440616 0.286729 3.534251 39.331096 6.774946 -9.802224 1.128597 1.357248 -1.739002 6.028532 -28.546875 -1.701424 1.352043 34.302699 0.538085 1.815515 -7.077457 -0.032500 0.000000 -42.958100 11.492029 -3.193332 -0.596098 6.470427 -5.127151 -5.342168 0.361492 -3.651719 51.596268 0.102923 4.049638 -9.341100 -0.129600 0.000000 -48.472400 -5.086858 0.531027 -3.440466 -1.610379 0.750618 -3.109324 -5.270359 0.641309 2.173069 10.930845 -11.805176 -8.481359 -1.770789 -0.130989 -0.189860 0.000000 0.000000 0.000000 -5.610857 21.870714 1.398943 -86.509380 21.186394 15.276291 -2.963534 -21.156283 -0.011340 -7.514299 7.588126 -0.508345 0.026293 -0.107513 -0.000000 0.000000 0.000000 0.000000 0.000000 0.000000 0.000000 11.253885 -6.305362 -0.853160 53.477031 12.361950 14.110237 1.316174 57.990567 0.005743 -0.006901 4.769649 -0.001711 0.050462 -0.188455 -0.000000 0.000000 0.000000 0.000000 0.000000 0.000000 0.000000 
-2.357845 16.426358 0.365133 3.700230 37.406871 6.764167 -9.809437 1.260778 1.059916 -2.172707 7.879076 -28.016980 -1.771808 1.374654 34.760821 0.577815 2.123748 -7.560973 -0.064500 0.000000 -43.407000 11.756453 -3.131218 -0.523824 5.488954 -5.314186 -7.522905 -0.021648 -3.823662 55.151806 -0.160641 1.959631 -9.184821 -0.048500 -0.000000 -46.659599 -5.260808 0.418424 -3.346418 -1.654889 0.653093 -3.123001 -5.343065 0.544313 2.070180 10.962355 -11.610294 -8.401141 -1.831812 -0.136821 -0.168305 0.000000 0.000000 0.000000 -5.488599 21.373177 1.380426 -85.880677 20.997344 16.630727 -2.929217 -21.862899 -0.011153 -7.549535 7.567969 -0.509346 0.026569 -0.105773 -0.000000 0.000000 0.000000 0.000000 0.000000 0.000000 0.000000 11.423188 -6.137848 -0.857756 54.620111 12.440999 14.100191 1.364954 57.367655 0.005887 -0.068090 4.871417 -0.004482 0.052787 -0.189389 -0.000000 0.000000 0.000000 0.000000 0.000000 0.000000 0.000000 
